<mxfile host="Electron" agent="Mozilla/5.0 (Macintosh; Intel Mac OS X 10_15_7) AppleWebKit/537.36 (KHTML, like Gecko) draw.io/26.0.9 Chrome/128.0.6613.186 Electron/32.2.5 Safari/537.36" version="26.0.9">
  <diagram name="Страница — 1" id="W1PgRhjUGGipeDQljRXi">
    <mxGraphModel dx="856" dy="623" grid="1" gridSize="10" guides="1" tooltips="1" connect="1" arrows="1" fold="1" page="1" pageScale="1" pageWidth="827" pageHeight="1169" math="0" shadow="0">
      <root>
        <mxCell id="0" />
        <mxCell id="1" parent="0" />
        <mxCell id="nNkwHvpU6vW06j_7cWOk-7" style="edgeStyle=orthogonalEdgeStyle;rounded=0;orthogonalLoop=1;jettySize=auto;html=1;exitX=0.5;exitY=1;exitDx=0;exitDy=0;entryX=0.5;entryY=0;entryDx=0;entryDy=0;" edge="1" parent="1" source="nNkwHvpU6vW06j_7cWOk-1" target="nNkwHvpU6vW06j_7cWOk-5">
          <mxGeometry relative="1" as="geometry" />
        </mxCell>
        <mxCell id="nNkwHvpU6vW06j_7cWOk-1" value="f(x, y), xs, y0" style="shape=parallelogram;perimeter=parallelogramPerimeter;whiteSpace=wrap;html=1;fixedSize=1;" vertex="1" parent="1">
          <mxGeometry x="320" y="180" width="120" height="60" as="geometry" />
        </mxCell>
        <mxCell id="nNkwHvpU6vW06j_7cWOk-4" style="edgeStyle=orthogonalEdgeStyle;rounded=0;orthogonalLoop=1;jettySize=auto;html=1;exitX=0.5;exitY=1;exitDx=0;exitDy=0;entryX=0.5;entryY=0;entryDx=0;entryDy=0;" edge="1" parent="1" source="nNkwHvpU6vW06j_7cWOk-2" target="nNkwHvpU6vW06j_7cWOk-1">
          <mxGeometry relative="1" as="geometry" />
        </mxCell>
        <mxCell id="nNkwHvpU6vW06j_7cWOk-2" value="Начало" style="ellipse;whiteSpace=wrap;html=1;" vertex="1" parent="1">
          <mxGeometry x="320" y="60" width="120" height="80" as="geometry" />
        </mxCell>
        <mxCell id="nNkwHvpU6vW06j_7cWOk-9" style="edgeStyle=orthogonalEdgeStyle;rounded=0;orthogonalLoop=1;jettySize=auto;html=1;exitX=0.5;exitY=1;exitDx=0;exitDy=0;entryX=0.5;entryY=0;entryDx=0;entryDy=0;" edge="1" parent="1" source="nNkwHvpU6vW06j_7cWOk-5" target="nNkwHvpU6vW06j_7cWOk-8">
          <mxGeometry relative="1" as="geometry" />
        </mxCell>
        <mxCell id="nNkwHvpU6vW06j_7cWOk-5" value="h = xs&lt;sub&gt;1&lt;/sub&gt;-xs&lt;sub&gt;0&lt;/sub&gt;" style="rounded=0;whiteSpace=wrap;html=1;" vertex="1" parent="1">
          <mxGeometry x="320" y="300" width="120" height="60" as="geometry" />
        </mxCell>
        <mxCell id="nNkwHvpU6vW06j_7cWOk-12" style="edgeStyle=orthogonalEdgeStyle;rounded=0;orthogonalLoop=1;jettySize=auto;html=1;exitX=0.5;exitY=1;exitDx=0;exitDy=0;entryX=0.5;entryY=0;entryDx=0;entryDy=0;" edge="1" parent="1" source="nNkwHvpU6vW06j_7cWOk-8" target="nNkwHvpU6vW06j_7cWOk-11">
          <mxGeometry relative="1" as="geometry" />
        </mxCell>
        <mxCell id="nNkwHvpU6vW06j_7cWOk-8" value="ys = []&lt;div&gt;ys&lt;sub&gt;0&lt;/sub&gt;&amp;nbsp;= y0&lt;/div&gt;" style="rounded=0;whiteSpace=wrap;html=1;" vertex="1" parent="1">
          <mxGeometry x="320" y="400" width="120" height="60" as="geometry" />
        </mxCell>
        <mxCell id="nNkwHvpU6vW06j_7cWOk-14" style="edgeStyle=orthogonalEdgeStyle;rounded=0;orthogonalLoop=1;jettySize=auto;html=1;exitX=0.5;exitY=1;exitDx=0;exitDy=0;entryX=0.5;entryY=0;entryDx=0;entryDy=0;" edge="1" parent="1" source="nNkwHvpU6vW06j_7cWOk-10" target="nNkwHvpU6vW06j_7cWOk-13">
          <mxGeometry relative="1" as="geometry" />
        </mxCell>
        <mxCell id="nNkwHvpU6vW06j_7cWOk-10" value="i &amp;lt; 4" style="shape=hexagon;perimeter=hexagonPerimeter2;whiteSpace=wrap;html=1;fixedSize=1;" vertex="1" parent="1">
          <mxGeometry x="320" y="560" width="120" height="80" as="geometry" />
        </mxCell>
        <mxCell id="nNkwHvpU6vW06j_7cWOk-15" style="edgeStyle=orthogonalEdgeStyle;rounded=0;orthogonalLoop=1;jettySize=auto;html=1;exitX=0.5;exitY=1;exitDx=0;exitDy=0;entryX=0.5;entryY=0;entryDx=0;entryDy=0;" edge="1" parent="1" source="nNkwHvpU6vW06j_7cWOk-11" target="nNkwHvpU6vW06j_7cWOk-10">
          <mxGeometry relative="1" as="geometry" />
        </mxCell>
        <mxCell id="nNkwHvpU6vW06j_7cWOk-11" value="i = 1" style="rounded=0;whiteSpace=wrap;html=1;" vertex="1" parent="1">
          <mxGeometry x="320" y="480" width="120" height="60" as="geometry" />
        </mxCell>
        <mxCell id="nNkwHvpU6vW06j_7cWOk-16" style="edgeStyle=orthogonalEdgeStyle;rounded=0;orthogonalLoop=1;jettySize=auto;html=1;exitX=1;exitY=0.5;exitDx=0;exitDy=0;entryX=1;entryY=0.5;entryDx=0;entryDy=0;" edge="1" parent="1" source="nNkwHvpU6vW06j_7cWOk-13" target="nNkwHvpU6vW06j_7cWOk-10">
          <mxGeometry relative="1" as="geometry" />
        </mxCell>
        <mxCell id="nNkwHvpU6vW06j_7cWOk-21" style="edgeStyle=orthogonalEdgeStyle;rounded=0;orthogonalLoop=1;jettySize=auto;html=1;exitX=0.5;exitY=1;exitDx=0;exitDy=0;" edge="1" parent="1" source="nNkwHvpU6vW06j_7cWOk-13">
          <mxGeometry relative="1" as="geometry">
            <mxPoint x="379.19047619047615" y="880" as="targetPoint" />
          </mxGeometry>
        </mxCell>
        <mxCell id="nNkwHvpU6vW06j_7cWOk-13" value="k1 = h * f(xs&lt;sub&gt;i&lt;/sub&gt;, ys&lt;sub&gt;i&lt;/sub&gt;)&lt;div&gt;k2 =&amp;nbsp;&lt;span style=&quot;background-color: transparent; color: light-dark(rgb(0, 0, 0), rgb(255, 255, 255));&quot;&gt;h * f(xs&lt;/span&gt;&lt;sub style=&quot;background-color: transparent; color: light-dark(rgb(0, 0, 0), rgb(255, 255, 255));&quot;&gt;i&lt;/sub&gt;&lt;span style=&quot;background-color: transparent; color: light-dark(rgb(0, 0, 0), rgb(255, 255, 255));&quot;&gt;&amp;nbsp;+ h / 2&lt;/span&gt;&lt;span style=&quot;background-color: transparent; color: light-dark(rgb(0, 0, 0), rgb(255, 255, 255));&quot;&gt;, ys&lt;/span&gt;&lt;sub style=&quot;background-color: transparent; color: light-dark(rgb(0, 0, 0), rgb(255, 255, 255));&quot;&gt;i.&lt;/sub&gt;&lt;span style=&quot;background-color: transparent; color: light-dark(rgb(0, 0, 0), rgb(255, 255, 255));&quot;&gt;+ k1/2&lt;/span&gt;&lt;span style=&quot;background-color: transparent; color: light-dark(rgb(0, 0, 0), rgb(255, 255, 255));&quot;&gt;)&lt;/span&gt;&lt;/div&gt;&lt;div&gt;k3 =&amp;nbsp;&lt;span style=&quot;color: light-dark(rgb(0, 0, 0), rgb(255, 255, 255)); background-color: transparent;&quot;&gt;h * f(xs&lt;/span&gt;&lt;sub style=&quot;color: light-dark(rgb(0, 0, 0), rgb(255, 255, 255)); background-color: transparent;&quot;&gt;i&lt;/sub&gt;&lt;span style=&quot;color: light-dark(rgb(0, 0, 0), rgb(255, 255, 255)); background-color: transparent;&quot;&gt;&amp;nbsp;+ h / 2&lt;/span&gt;&lt;span style=&quot;color: light-dark(rgb(0, 0, 0), rgb(255, 255, 255)); background-color: transparent;&quot;&gt;, ys&lt;/span&gt;&lt;sub style=&quot;color: light-dark(rgb(0, 0, 0), rgb(255, 255, 255)); background-color: transparent;&quot;&gt;i.&lt;/sub&gt;&lt;span style=&quot;color: light-dark(rgb(0, 0, 0), rgb(255, 255, 255)); background-color: transparent;&quot;&gt;+ k2/2&lt;/span&gt;&lt;span style=&quot;color: light-dark(rgb(0, 0, 0), rgb(255, 255, 255)); background-color: transparent;&quot;&gt;)&lt;/span&gt;&lt;span style=&quot;background-color: transparent; color: light-dark(rgb(0, 0, 0), rgb(255, 255, 255));&quot;&gt;&lt;br&gt;&lt;/span&gt;&lt;/div&gt;&lt;div&gt;k4 =&amp;nbsp;&lt;span style=&quot;color: light-dark(rgb(0, 0, 0), rgb(255, 255, 255)); background-color: transparent;&quot;&gt;h * f(xs&lt;/span&gt;&lt;sub style=&quot;color: light-dark(rgb(0, 0, 0), rgb(255, 255, 255)); background-color: transparent;&quot;&gt;i&lt;/sub&gt;&lt;span style=&quot;color: light-dark(rgb(0, 0, 0), rgb(255, 255, 255)); background-color: transparent;&quot;&gt;&amp;nbsp;+ h ,&lt;/span&gt;&lt;span style=&quot;color: light-dark(rgb(0, 0, 0), rgb(255, 255, 255)); background-color: transparent;&quot;&gt;&amp;nbsp;ys&lt;/span&gt;&lt;sub style=&quot;color: light-dark(rgb(0, 0, 0), rgb(255, 255, 255)); background-color: transparent;&quot;&gt;i.&lt;/sub&gt;&lt;span style=&quot;color: light-dark(rgb(0, 0, 0), rgb(255, 255, 255)); background-color: transparent;&quot;&gt;+ k3&lt;/span&gt;&lt;span style=&quot;color: light-dark(rgb(0, 0, 0), rgb(255, 255, 255)); background-color: transparent;&quot;&gt;)&lt;/span&gt;&lt;span style=&quot;color: light-dark(rgb(0, 0, 0), rgb(255, 255, 255)); background-color: transparent;&quot;&gt;&lt;br&gt;&lt;/span&gt;&lt;/div&gt;&lt;div&gt;&lt;span style=&quot;color: light-dark(rgb(0, 0, 0), rgb(255, 255, 255)); background-color: transparent;&quot;&gt;ys&lt;sub&gt;i+1&lt;/sub&gt;&amp;nbsp;= (ys&lt;sub&gt;i&lt;/sub&gt;&amp;nbsp;+ (k1 + 2 * k2 + 2 * k3 + k4) / 6)&lt;/span&gt;&lt;/div&gt;&lt;div&gt;i = i + 1&lt;/div&gt;" style="rounded=0;whiteSpace=wrap;html=1;" vertex="1" parent="1">
          <mxGeometry x="258.75" y="700" width="241.25" height="110" as="geometry" />
        </mxCell>
        <mxCell id="nNkwHvpU6vW06j_7cWOk-24" style="edgeStyle=orthogonalEdgeStyle;rounded=0;orthogonalLoop=1;jettySize=auto;html=1;exitX=0.5;exitY=1;exitDx=0;exitDy=0;" edge="1" parent="1" source="nNkwHvpU6vW06j_7cWOk-23">
          <mxGeometry relative="1" as="geometry">
            <mxPoint x="379.19047619047615" y="990" as="targetPoint" />
          </mxGeometry>
        </mxCell>
        <mxCell id="nNkwHvpU6vW06j_7cWOk-23" value="i = 4&lt;div&gt;n = xs.length&lt;/div&gt;" style="rounded=0;whiteSpace=wrap;html=1;" vertex="1" parent="1">
          <mxGeometry x="319" y="880" width="120" height="60" as="geometry" />
        </mxCell>
        <mxCell id="nNkwHvpU6vW06j_7cWOk-27" style="edgeStyle=orthogonalEdgeStyle;rounded=0;orthogonalLoop=1;jettySize=auto;html=1;exitX=0.5;exitY=1;exitDx=0;exitDy=0;entryX=0.5;entryY=0;entryDx=0;entryDy=0;" edge="1" parent="1" source="nNkwHvpU6vW06j_7cWOk-25" target="nNkwHvpU6vW06j_7cWOk-26">
          <mxGeometry relative="1" as="geometry" />
        </mxCell>
        <mxCell id="nNkwHvpU6vW06j_7cWOk-25" value="i &amp;lt; n" style="shape=hexagon;perimeter=hexagonPerimeter2;whiteSpace=wrap;html=1;fixedSize=1;" vertex="1" parent="1">
          <mxGeometry x="319" y="990" width="120" height="80" as="geometry" />
        </mxCell>
        <mxCell id="nNkwHvpU6vW06j_7cWOk-28" style="edgeStyle=orthogonalEdgeStyle;rounded=0;orthogonalLoop=1;jettySize=auto;html=1;exitX=0.5;exitY=1;exitDx=0;exitDy=0;" edge="1" parent="1" source="nNkwHvpU6vW06j_7cWOk-26">
          <mxGeometry relative="1" as="geometry">
            <mxPoint x="379.19047619047615" y="1340" as="targetPoint" />
          </mxGeometry>
        </mxCell>
        <mxCell id="nNkwHvpU6vW06j_7cWOk-26" value="yp =y&lt;sub&gt;i-4&lt;/sub&gt;+ (4 * h/3)* (2 * f(xs&lt;sub&gt;i-3&lt;/sub&gt;, ys&lt;sub&gt;i-3&lt;/sub&gt;) - f(xs&lt;sub&gt;i-2&lt;/sub&gt;, ys&lt;sub&gt;i-2&lt;/sub&gt;) + 2 * f(xs&lt;sub&gt;i-1 &lt;/sub&gt;, ys&lt;sub&gt;-1&lt;/sub&gt;)&lt;div&gt;y_next = yp&lt;/div&gt;" style="rounded=0;whiteSpace=wrap;html=1;" vertex="1" parent="1">
          <mxGeometry x="178.12" y="1130" width="401.75" height="140" as="geometry" />
        </mxCell>
        <mxCell id="nNkwHvpU6vW06j_7cWOk-31" style="edgeStyle=orthogonalEdgeStyle;rounded=0;orthogonalLoop=1;jettySize=auto;html=1;exitX=0.5;exitY=1;exitDx=0;exitDy=0;" edge="1" parent="1" source="nNkwHvpU6vW06j_7cWOk-29">
          <mxGeometry relative="1" as="geometry">
            <mxPoint x="379.19047619047615" y="1460" as="targetPoint" />
          </mxGeometry>
        </mxCell>
        <mxCell id="nNkwHvpU6vW06j_7cWOk-29" value="true" style="shape=hexagon;perimeter=hexagonPerimeter2;whiteSpace=wrap;html=1;fixedSize=1;" vertex="1" parent="1">
          <mxGeometry x="319" y="1340" width="120" height="80" as="geometry" />
        </mxCell>
        <mxCell id="nNkwHvpU6vW06j_7cWOk-34" style="edgeStyle=orthogonalEdgeStyle;rounded=0;orthogonalLoop=1;jettySize=auto;html=1;exitX=0.5;exitY=1;exitDx=0;exitDy=0;entryX=0.5;entryY=0;entryDx=0;entryDy=0;" edge="1" parent="1" source="nNkwHvpU6vW06j_7cWOk-32" target="nNkwHvpU6vW06j_7cWOk-33">
          <mxGeometry relative="1" as="geometry" />
        </mxCell>
        <mxCell id="nNkwHvpU6vW06j_7cWOk-32" value="yc = ys&lt;sub&gt;i-2&amp;nbsp;&lt;/sub&gt;+ h /3 * f(xs&lt;sub&gt;i-2, &lt;/sub&gt;ys&lt;sub&gt;i-2&lt;/sub&gt;) + 4 * f(xs&lt;sub&gt;i-1&lt;/sub&gt;, y&lt;sub&gt;i-1&lt;/sub&gt;) + f(xs&lt;sub&gt;i&lt;/sub&gt;, y_next)" style="rounded=0;whiteSpace=wrap;html=1;" vertex="1" parent="1">
          <mxGeometry x="180" y="1460" width="400" height="60" as="geometry" />
        </mxCell>
        <mxCell id="nNkwHvpU6vW06j_7cWOk-39" style="edgeStyle=orthogonalEdgeStyle;rounded=0;orthogonalLoop=1;jettySize=auto;html=1;exitX=0.5;exitY=1;exitDx=0;exitDy=0;entryX=0.5;entryY=0;entryDx=0;entryDy=0;" edge="1" parent="1" source="nNkwHvpU6vW06j_7cWOk-33" target="nNkwHvpU6vW06j_7cWOk-37">
          <mxGeometry relative="1" as="geometry" />
        </mxCell>
        <mxCell id="nNkwHvpU6vW06j_7cWOk-45" style="edgeStyle=orthogonalEdgeStyle;rounded=0;orthogonalLoop=1;jettySize=auto;html=1;exitX=1;exitY=0.5;exitDx=0;exitDy=0;entryX=0;entryY=0.5;entryDx=0;entryDy=0;" edge="1" parent="1" source="nNkwHvpU6vW06j_7cWOk-33" target="nNkwHvpU6vW06j_7cWOk-44">
          <mxGeometry relative="1" as="geometry" />
        </mxCell>
        <mxCell id="nNkwHvpU6vW06j_7cWOk-33" value="| yc - y_next | &amp;lt; eps" style="rhombus;whiteSpace=wrap;html=1;" vertex="1" parent="1">
          <mxGeometry x="289.38" y="1590" width="180" height="80" as="geometry" />
        </mxCell>
        <mxCell id="nNkwHvpU6vW06j_7cWOk-49" style="edgeStyle=orthogonalEdgeStyle;rounded=0;orthogonalLoop=1;jettySize=auto;html=1;exitX=0;exitY=0.5;exitDx=0;exitDy=0;entryX=0;entryY=0.5;entryDx=0;entryDy=0;" edge="1" parent="1" source="nNkwHvpU6vW06j_7cWOk-37" target="nNkwHvpU6vW06j_7cWOk-25">
          <mxGeometry relative="1" as="geometry">
            <Array as="points">
              <mxPoint x="140" y="1784" />
              <mxPoint x="140" y="1030" />
            </Array>
          </mxGeometry>
        </mxCell>
        <mxCell id="nNkwHvpU6vW06j_7cWOk-51" style="edgeStyle=orthogonalEdgeStyle;rounded=0;orthogonalLoop=1;jettySize=auto;html=1;exitX=0.5;exitY=1;exitDx=0;exitDy=0;entryX=0.5;entryY=0;entryDx=0;entryDy=0;" edge="1" parent="1" source="nNkwHvpU6vW06j_7cWOk-37" target="nNkwHvpU6vW06j_7cWOk-50">
          <mxGeometry relative="1" as="geometry" />
        </mxCell>
        <mxCell id="nNkwHvpU6vW06j_7cWOk-37" value="y_next = yc&lt;div&gt;ys.append(y_next)&lt;/div&gt;" style="rounded=0;whiteSpace=wrap;html=1;" vertex="1" parent="1">
          <mxGeometry x="320" y="1754" width="120" height="60" as="geometry" />
        </mxCell>
        <mxCell id="nNkwHvpU6vW06j_7cWOk-40" value="&lt;span style=&quot;color: rgba(0, 0, 0, 0); font-family: monospace; font-size: 0px; text-align: start;&quot;&gt;%3CmxGraphModel%3E%3Croot%3E%3CmxCell%20id%3D%220%22%2F%3E%3CmxCell%20id%3D%221%22%20parent%3D%220%22%2F%3E%3CmxCell%20id%3D%222%22%20value%3D%22%26lt%3Bspan%20style%3D%26quot%3Btext-wrap%3A%20wrap%3B%26quot%3B%26gt%3B%D0%B4%D0%B0%26lt%3B%2Fspan%26gt%3B%22%20style%3D%22text%3Bhtml%3D1%3Balign%3Dcenter%3BverticalAlign%3Dmiddle%3Bresizable%3D0%3Bpoints%3D%5B%5D%3Bautosize%3D1%3BstrokeColor%3Dnone%3BfillColor%3Dnone%3B%22%20vertex%3D%221%22%20parent%3D%221%22%3E%3CmxGeometry%20x%3D%22480%22%20y%3D%221598%22%20width%3D%2240%22%20height%3D%2230%22%20as%3D%22geometry%22%2F%3E%3C%2FmxCell%3E%3C%2Froot%3E%3C%2FmxGraphModel%3E3CmxGraphModel%3E%3Croot%3E%3CmxCell%20id%3D%220%22%2F%3E%3CmxCell%20id%3D%221%22%20parent%3D%220%22%2F%3E%3CmxCell%20id%3D%222%22%20value%3D%22%26lt%3Bspan%20style%3D%26quot%3Btext-wrap%3A%20wrap%3B%26quot%3B%26gt%3B%D0%B4%D0%B0%26lt%3B%2Fspan%26gt%3B%22%20style%3D%22text%3Bhtml%3D1%3Balign%3Dcenter%3BverticalAlign%3Dmiddle%3Bresizable%3D0%3Bpoints%3D%5B%5D%3Bautosize%3D1%3BstrokeColor%3Dnone%3BfillColor%3Dnone%3B%22%20vertex%3D%221%22%20parent%3D%221%22%3E%3CmxGeometry%20x%3D%22480%22%20y%3D%221598%22%20width%3D%2240%22%20height%3D%2230%22%20as%3D%22geometry%22%2F%3E%3C%2FmxCell%3E%3C%2Froot%3E%3C%2FmxGraphModel%3E&lt;/span&gt;" style="text;html=1;align=center;verticalAlign=middle;resizable=0;points=[];autosize=1;strokeColor=none;fillColor=none;" vertex="1" parent="1">
          <mxGeometry x="400" y="1708" width="20" height="30" as="geometry" />
        </mxCell>
        <mxCell id="nNkwHvpU6vW06j_7cWOk-41" value="&lt;span style=&quot;color: rgba(0, 0, 0, 0); font-family: monospace; font-size: 0px; text-align: start;&quot;&gt;%3CmxGraphModel%3E%3Croot%3E%3CmxCell%20id%3D%220%22%2F%3E%3CmxCell%20id%3D%221%22%20parent%3D%220%22%2F%3E%3CmxCell%20id%3D%222%22%20value%3D%22%26lt%3Bspan%20style%3D%26quot%3Btext-wrap%3A%20wrap%3B%26quot%3B%26gt%3B%D0%B4%D0%B0%26lt%3B%2Fspan%26gt%3B%22%20style%3D%22text%3Bhtml%3D1%3Balign%3Dcenter%3BverticalAlign%3Dmiddle%3Bresizable%3D0%3Bpoints%3D%5B%5D%3Bautosize%3D1%3BstrokeColor%3Dnone%3BfillColor%3Dnone%3B%22%20vertex%3D%221%22%20parent%3D%221%22%3E%3CmxGeometry%20x%3D%22480%22%20y%3D%221598%22%20width%3D%2240%22%20height%3D%2230%22%20as%3D%22geometry%22%2F%3E%3C%2FmxCell%3E%3C%2Froot%3E%3C%2FmxGraphModel%3E3CmxGraphModel%3E%3Croot%3E%3CmxCell%20id%3D%220%22%2F%3E%3CmxCell%20id%3D%221%22%20parent%3D%220%22%2F%3E%3CmxCell%20id%3D%222%22%20value%3D%22%26lt%3Bspan%20style%3D%26quot%3Btext-wrap%3A%20wrap%3B%26quot%3B%26gt%3B%D0%B4%D0%B0%26lt%3B%2Fspan%26gt%3B%22%20style%3D%22text%3Bhtml%3D1%3Balign%3Dcenter%3BverticalAlign%3Dmiddle%3Bresizable%3D0%3Bpoints%3D%5B%5D%3Bautosize%3D1%3BstrokeColor%3Dnone%3BfillColor%3Dnone%3B%22%20vertex%3D%221%22%20parent%3D%221%22%3E%3CmxGeometry%20x%3D%22480%22%20y%3D%221598%22%20width%3D%2240%22%20height%3D%2230%22%20as%3D%22geometry%22%2F%3E%3C%2FmxCell%3E%3C%2Froot%3E%3C%2FmxGraphModel%3E&lt;/span&gt;" style="text;html=1;align=center;verticalAlign=middle;resizable=0;points=[];autosize=1;strokeColor=none;fillColor=none;" vertex="1" parent="1">
          <mxGeometry x="500" y="1708" width="20" height="30" as="geometry" />
        </mxCell>
        <mxCell id="nNkwHvpU6vW06j_7cWOk-43" value="да" style="text;html=1;align=center;verticalAlign=middle;resizable=0;points=[];autosize=1;strokeColor=none;fillColor=none;" vertex="1" parent="1">
          <mxGeometry x="390" y="1690" width="40" height="30" as="geometry" />
        </mxCell>
        <mxCell id="nNkwHvpU6vW06j_7cWOk-47" style="edgeStyle=orthogonalEdgeStyle;rounded=0;orthogonalLoop=1;jettySize=auto;html=1;exitX=1;exitY=0.5;exitDx=0;exitDy=0;entryX=1;entryY=0.5;entryDx=0;entryDy=0;" edge="1" parent="1" source="nNkwHvpU6vW06j_7cWOk-44" target="nNkwHvpU6vW06j_7cWOk-29">
          <mxGeometry relative="1" as="geometry" />
        </mxCell>
        <mxCell id="nNkwHvpU6vW06j_7cWOk-44" value="y_next = yc" style="rounded=0;whiteSpace=wrap;html=1;" vertex="1" parent="1">
          <mxGeometry x="530" y="1600" width="120" height="60" as="geometry" />
        </mxCell>
        <mxCell id="nNkwHvpU6vW06j_7cWOk-46" value="нет" style="text;html=1;align=center;verticalAlign=middle;resizable=0;points=[];autosize=1;strokeColor=none;fillColor=none;" vertex="1" parent="1">
          <mxGeometry x="480" y="1598" width="40" height="30" as="geometry" />
        </mxCell>
        <mxCell id="nNkwHvpU6vW06j_7cWOk-53" style="edgeStyle=orthogonalEdgeStyle;rounded=0;orthogonalLoop=1;jettySize=auto;html=1;exitX=0.5;exitY=1;exitDx=0;exitDy=0;entryX=0.5;entryY=0;entryDx=0;entryDy=0;" edge="1" parent="1" source="nNkwHvpU6vW06j_7cWOk-50" target="nNkwHvpU6vW06j_7cWOk-52">
          <mxGeometry relative="1" as="geometry" />
        </mxCell>
        <mxCell id="nNkwHvpU6vW06j_7cWOk-50" value="ys" style="shape=parallelogram;perimeter=parallelogramPerimeter;whiteSpace=wrap;html=1;fixedSize=1;" vertex="1" parent="1">
          <mxGeometry x="319" y="1890" width="120" height="60" as="geometry" />
        </mxCell>
        <mxCell id="nNkwHvpU6vW06j_7cWOk-52" value="Конец" style="ellipse;whiteSpace=wrap;html=1;" vertex="1" parent="1">
          <mxGeometry x="320" y="2030" width="120" height="80" as="geometry" />
        </mxCell>
      </root>
    </mxGraphModel>
  </diagram>
</mxfile>
